<mxfile host="app.diagrams.net" agent="Mozilla/5.0 (Windows NT 10.0; Win64; x64) AppleWebKit/537.36 (KHTML, like Gecko) Chrome/137.0.0.0 Safari/537.36" version="27.1.6">
  <diagram name="第 1 页" id="INpxyaxJs5-nK2j82GfY">
    <mxGraphModel dx="1800" dy="718" grid="1" gridSize="10" guides="1" tooltips="1" connect="1" arrows="1" fold="1" page="1" pageScale="1" pageWidth="827" pageHeight="1169" math="0" shadow="0">
      <root>
        <mxCell id="0" />
        <mxCell id="1" parent="0" />
        <mxCell id="b-Wlq2eOZtSJIpx6lz2Y-1" value="" style="rounded=0;whiteSpace=wrap;html=1;fillColor=none;movable=0;resizable=0;rotatable=0;deletable=0;editable=0;locked=1;connectable=0;" parent="1" vertex="1">
          <mxGeometry x="330" y="120" width="960" height="540" as="geometry" />
        </mxCell>
        <mxCell id="b-Wlq2eOZtSJIpx6lz2Y-2" value="" style="rounded=0;whiteSpace=wrap;html=1;fillColor=none;" parent="1" vertex="1">
          <mxGeometry x="700" y="210" width="270" height="360" as="geometry" />
        </mxCell>
        <mxCell id="YhxZOhW0D_fjrTyIK-lM-1" value="名字：lance&lt;div&gt;生日：2025-01-06&lt;br&gt;&lt;div&gt;称号：妖精的信使&lt;/div&gt;&lt;div&gt;职业等级：56（法师6、战士21、锻造师3，草药师1，附魔师4，盗贼9，厨师1，占卜师11）&lt;/div&gt;&lt;/div&gt;" style="rounded=0;whiteSpace=wrap;html=1;fillColor=none;align=left;glass=0;" parent="1" vertex="1">
          <mxGeometry x="720" y="220" width="230" height="100" as="geometry" />
        </mxCell>
        <mxCell id="YhxZOhW0D_fjrTyIK-lM-2" value="血量：0/0&lt;div&gt;蓝量：0/0&lt;/div&gt;&lt;div&gt;攻击力：1&lt;/div&gt;&lt;div&gt;防御力：1&lt;/div&gt;&lt;div&gt;魔法攻击力：&lt;/div&gt;&lt;div&gt;魔抗：&lt;/div&gt;" style="rounded=0;whiteSpace=wrap;html=1;fillColor=none;align=left;" parent="1" vertex="1">
          <mxGeometry x="720" y="330" width="110" height="100" as="geometry" />
        </mxCell>
        <mxCell id="YhxZOhW0D_fjrTyIK-lM-7" value="增益：妖精的祝福&#x9;" style="rounded=0;whiteSpace=wrap;html=1;fillColor=none;align=left;labelPosition=center;verticalLabelPosition=middle;verticalAlign=top;" parent="1" vertex="1">
          <mxGeometry x="720" y="440" width="230" height="50" as="geometry" />
        </mxCell>
        <mxCell id="YhxZOhW0D_fjrTyIK-lM-8" value="减益：史莱姆黏液" style="rounded=0;whiteSpace=wrap;html=1;fillColor=none;align=left;verticalAlign=top;" parent="1" vertex="1">
          <mxGeometry x="720" y="490" width="230" height="50" as="geometry" />
        </mxCell>
        <mxCell id="cvERct0VnnuNf-2LxuTa-2" value="" style="rounded=0;whiteSpace=wrap;html=1;fillColor=none;align=left;" vertex="1" parent="1">
          <mxGeometry x="840" y="330" width="110" height="100" as="geometry" />
        </mxCell>
        <mxCell id="cvERct0VnnuNf-2LxuTa-4" value="&amp;nbsp;受到了森林的祝福，每秒回复10hp" style="rounded=0;whiteSpace=wrap;html=1;align=left;verticalAlign=middle;" vertex="1" parent="1">
          <mxGeometry x="1070" y="390" width="180" height="110" as="geometry" />
        </mxCell>
        <mxCell id="cvERct0VnnuNf-2LxuTa-5" value="减益/增益悬浮窗口" style="text;strokeColor=none;align=center;fillColor=none;html=1;verticalAlign=middle;whiteSpace=wrap;rounded=0;" vertex="1" parent="1">
          <mxGeometry x="1070" y="350" width="60" height="30" as="geometry" />
        </mxCell>
        <mxCell id="cvERct0VnnuNf-2LxuTa-6" value="" style="endArrow=none;html=1;rounded=0;exitX=0;exitY=0.25;exitDx=0;exitDy=0;entryX=1;entryY=0.25;entryDx=0;entryDy=0;" edge="1" parent="1" source="cvERct0VnnuNf-2LxuTa-4" target="cvERct0VnnuNf-2LxuTa-4">
          <mxGeometry width="50" height="50" relative="1" as="geometry">
            <mxPoint x="1170.71" y="460" as="sourcePoint" />
            <mxPoint x="1070.71" y="430" as="targetPoint" />
          </mxGeometry>
        </mxCell>
        <mxCell id="cvERct0VnnuNf-2LxuTa-8" value="妖精的祝福" style="text;strokeColor=none;align=center;fillColor=none;html=1;verticalAlign=middle;whiteSpace=wrap;rounded=0;fontColor=#009900;" vertex="1" parent="1">
          <mxGeometry x="1056" y="390" width="102" height="30" as="geometry" />
        </mxCell>
      </root>
    </mxGraphModel>
  </diagram>
</mxfile>
